<svg width="1024" height="1024" version="1.1" viewBox="0 0 270.93 270.93" xmlns="http://www.w3.org/2000/svg">
 <path d="m207.77 204.08c-0.80813 0.37958-1.7796 1.0281-2.8445 1.7803-1.0647 0.74008-2.2445 1.4951-3.4242 2.263-2.3569 1.4532-4.7782 2.6631-6.3734 2.6176 2.6116-1.9454 4.674-3.1881 6.3356-4.3348 1.667-1.0915 2.9298-2.0307 3.8006-3.389 1.695 0.0612 4.7345-2.4174 7.6093-5.6695 1.4865-1.5699 2.849-3.3893 4.208-4.9702 1.2593-1.6214 2.5529-3.0323 3.6715-3.9626l-0.10526-2.4885s0.60768-0.69407 1.1362-1.4088c0.53898-0.72112 1.0772-1.4394 1.0772-1.4394 2.8571-7.3714 3.3564-11.426 3.8624-13.793 0.36917-2.3534 0.47815-3.0719 0.60716-3.6718 0.11458-0.59642 0.26756-1.0832 0.63695-2.9763 0.3208-1.8759 0.90389-5.1885 1.092-11.168-0.0156-6.9145-1.0133-11.743-1.9129-15.755-0.88733-3.8325-1.733-6.9444-2.2288-10.355 0.12931 1.221-0.13492 3.1807-0.99563 0.3654 0.46144-0.39865-0.25784-2.5186-1.0238-4.7389-0.81992-2.2118-1.7471-4.5067-1.4597-5.4663-0.60785-1.5238-1.6948-4.8242-2.8837-7.1737-1.159-2.363-2.1469-3.8184-2.1324-1.8584 0.08-1.9681-3.9804-10.674-0.85754-5.886-1.433-2.9078-2.7312-5.8212-4.2896-7.6364l0.91924 1.9077c0.41371 0.96747 0.82549 1.9356 0.82549 1.9356-1.3103-2.3917-2.6674-4.4471-3.7764-6.3776-1.1959-1.8929-2.3216-3.5919-3.3933-5.1732-1.155-1.5435-2.2743-2.9609-3.4584-4.2821-1.2467-1.2835-2.5775-2.459-4.0516-3.5577l2.364 3.4848c-0.88531-1.0057-1.7642-1.9337-2.6269-2.8204-1.083-1.3284-2.093-2.6177-2.988-3.7111-0.91522-0.48281-0.0218 0.4834 0.59535 1.2776-2.3798-2.3894-4.3039-4.3668-5.0256-6.1432 0 0 1.4262 1.0387 2.8544 2.0764 0.72546 0.51431 1.4145 1.0634 1.9105 1.493 0.50645 0.42355 0.84467 0.70552 0.84467 0.70552-2.0125-2.0022-4.1072-3.5657-5.9558-5.0939-1.9596-1.4187-3.7944-2.7191-5.6604-3.8552-0.23042-0.12824-0.4513-0.25523-0.67646-0.38179-0.42884-0.41393-1.0315-0.93403-1.9497-1.6415-15.012-11.423-32.875-19.23-52.346-20.74-2.4157-0.25578-4.8617-0.27179-7.3191-0.23671-1.2263 0.02139-2.4519-0.0096-3.6795 0.0761l-3.6901 0.33121c-1.2343 0.13164-2.4538 0.21516-3.7001 0.40844l-3.7725 0.71091c-1.253 0.2563-2.5213 0.4851-3.7609 0.78985l-3.6545 1.0824c-9.7296 2.9823-18.737 7.808-26.713 14.106-0.95457 0.25985-0.0792-0.4117 0.75611-1.2761-9.5218 7.8084-16.97 16.12-22.603 26.255-1.9883 2.5269-2.7939 3.1222-3.5967 3.7721 0.43085-0.30784-1.4205 3.0263-3.5145 8.8439-0.27206 0.71888-0.55613 1.47-0.85003 2.2492-0.2638 0.79997-0.50033 1.6524-0.75909 2.5187-0.49291 1.7442-1.0175 3.5936-1.5619 5.5117-0.78218 3.9826-1.7042 8.2223-1.9547 12.694l-0.26368 3.3208c-0.0694 1.1078-0.014 2.2309-0.018 3.3386 0.0457 2.2122 0.0327 4.4279 0.20197 6.5158 0.3417 4.1687 0.96496 8.0213 1.648 11.296 0.38682 1.621 0.74347 3.1127 1.0616 4.4451 0.34794 1.3178 0.71789 2.4464 0.99725 3.4018 0.56493 1.9117 0.94413 3.0424 0.98099 3.1702l1.8002 0.19397c0.56553 1.4904 0.99094 2.6693 1.3089 3.6159 0.35236 0.92075 0.58866 1.6189 0.74405 2.1646 0.31187 1.0935 0.29218 1.5846 0.27427 2.0462-0.0346 0.91682-0.11784 1.7602 2.8609 6.7936 1.0706 0.67157 2.1866 2.0416 3.3592 3.7243 1.2427 1.6157 2.4368 3.6595 3.7842 5.5366 1.3016 1.9241 2.6279 3.809 3.8932 5.2953 1.2255 1.5275 2.3809 2.657 3.262 3.1285-0.094 0.0367 0.7812 1.0566 1.5986 2.1036 0.8247 1.035 1.6362 2.0462 1.265 2.2074 2.0112 0.23347 4.2894 3.6075 7.1645 5.5092 1.1838 0.47494-0.50437-0.8554-0.95658-1.7791 0 0 0.38754 0.29117 0.96748 0.72893 0.60095 0.4129 1.3993 0.96172 2.1998 1.5096 0.80159 0.54185 1.6039 1.0811 2.2051 1.4862 0.62 0.37671 1.0322 0.62839 1.0322 0.62839 2.2727 2.0582 2.5337 3.1402-0.29397 1.3722 2.0934 1.5324 5.143 3.6407 9.0926 5.8768 3.9371 2.2807 8.7737 4.6719 14.235 6.7848 10.919 4.3145 24.311 7.2746 37.492 8.0813 3.2974 0.21487 6.5798 0.29914 9.8241 0.30744 3.2048-0.0411 6.4539-0.10681 9.7648-0.38242 6.5522-0.48383 13.093-1.5594 19.248-3.2936 6.1455-1.7081 11.897-4.1089 16.687-6.8705 4.7971-2.7536 8.5662-5.7636 11.041-8.084" fill="#044767"/>
 <g transform="matrix(1.5525 0 0 1.5525 158.07 -737.39)" fill="#fff" stroke-width=".27026">
  <path d="m-8.1378 603.39c-0.6407-0.14918-1.8645-1.1993-2.3362-2.0047-0.6362-1.0862-0.54-5.5969 0.1803-8.4541 0.3014-1.1956 0.6212-2.4981 0.7106-2.8946 0.1195-0.53033-0.2736-0.12799-1.4878 1.5226-2.4636 3.3493-6.6689 8.3774-8.5246 10.192-4.4716 4.3738-8.0982 5.3082-11.282 2.9069-3.8096-2.8734-2.5295-8.2333 3.7233-15.59 3.642-4.285 8.8801-8.9229 12.924-11.443 2.0482-1.2765 5.1382-2.5624 7.0745-2.9439 2.5231-0.49722 5.6324 0.97431 5.6324 2.6656 0 0.85634-0.1937 0.89121-1.0576 0.19092-1.335-1.0829-4.9654-0.533-8.1379 1.2326-4.3016 2.3941-10.008 7.5508-13.042 11.786-1.8973 2.6482-4.2455 6.734-5.0545 8.7945-0.4132 1.0527-0.5199 1.7818-0.4358 2.9794 0.1849 2.6311 1.2383 3.0648 3.6183 1.4895 2.7438-1.816 8.1265-7.7235 14.922-16.377 2.7321-3.4789 5.2678-6.5497 5.6351-6.824 0.5466-0.40822 0.8935-0.47887 1.9119-0.38935 0.6842 0.0601 1.4678 0.29781 1.7413 0.52812 0.486 0.40935 0.47 0.46932-0.7114 2.6737-2.5912 4.8347-4.0208 9.2377-4.3339 13.348-0.179 2.3488 0.248 3.3991 1.5066 3.7059 0.6449 0.1572-0.8188 0.41035 0 0 1.9194-0.96168 6.9932-8.4832 9.8795-12.559 2.3609-3.3339 5.8027-8.8916 6.9824-11.275 4.1949-8.4979 4.3405-9.4796 6.9763-15.067 1.4555-3.0832 4.98-11.079 5.3311-11.516 0.792-0.98555 2.8498-1.4783 3.9331-0.94179 1.3043 0.64592 0.707 3.3177-1.2027 5.3806-3.3006 6.1724-7.239 15.266-9.7328 19.891-1.5423 3.1037-4.3344 9.7602-5.4979 13.107-1.1372 3.2714-1.3636 6.296-0.5597 7.4753 0.6585 0.96599 1.9124 1.0543 3.2274 0.22723 2.4837-1.562 9.7907-9.6848 12.027-13.37 3.1118-5.1274 9.541-11.644 15.598-15.81 2.5754-1.7714 5.9216-3.2905 8.1887-3.7177 2.449-0.46144 5.2918 0.78795 5.6057 2.4636 0.1757 0.93778-0.1437 1.2065-0.712 0.59909-1.0988-1.1744-4.501-0.90835-7.5216 0.58817-5.3363 2.6438-11.992 8.8222-15.452 14.344-3.1938 5.097-4.5184 8.5459-4.0067 10.432 0.5715 2.107 1.6625 2.177 4.2116 0.2701 2.6905-2.0128 6.4684-6.185 13.399-14.798 7.2987-9.07 7.0407-8.8431 9.3178-8.1937 0.7305 0.20834 1.1244 0.49865 1.1244 0.82861 0 0.27935-0.5884 1.591-1.3075 2.9149-2.4952 4.5932-4.1441 10.376-3.9331 13.794 0.097 1.5671 0.2075 1.8638 0.8715 2.3345 0.6177 0.43801 0.9548 0.47556 1.7943 0.19988 2.2967-0.7542 8.6587-7.455 13.069-13.765 1.7612-2.5198 2.4723-3.0913 2.4678-1.9834 0 0.92561-2.1973 4.2049-5.8065 8.6809-5.0523 6.2656-8.0157 8.7433-11.531 9.6412-2.457 0.62748-3.5686 0.32147-4.563-1.2561-0.6643-1.054-0.7167-1.3591-0.6944-4.0433 0.022-2.6565 0.4674-5.2842 1.3289-7.8423 0.1092-0.32425-1.9365 2.0714-4.546 5.3238-6.457 8.0476-9.171 10.349-12.611 10.692-1.8353 0.18324-3.2458-0.28479-4.6389-1.5393-1.2078-1.0878-2.0841-3.2284-1.7478-4.2699 0.099-0.30748-0.8798 0.70597-2.1757 2.2521-4.5916 5.4781-7.072 7.4183-10.558 8.2591-1.8867 0.45494-2.2146 0.45861-3.0183 0.0331-1.5282-0.80896-1.982-1.6022-2.0853-3.645-0.096-1.9068 0.4794-4.544 1.7741-8.1244 0.3241-0.89616 0.485-1.4855 0.3576-1.3097-0.1274 0.17585-0.9004 1.3154-1.7178 2.5322-2.8361 3.6136-5.1314 7.4143-7.4229 10.099-1.125 1.3178-2.882 4.6644-5.1973 5.1981-1.1026 0.25407-2.1832 0.42076-2.4015 0.36965z"/>
  <path d="m-38.926 514.61c-0.2838-4e-3 -0.5599 0.015-0.8201 0.0599-2.3797 0.41084-5.8995 3.6376-8.9747 8.2269-1.6362 2.442-2.3019 4.1877-2.0954 5.4963 0.1573 0.99663-0.2998 2.1538-4.0551 10.266-0.5566 1.2024-1.0008 1.3671-1.941 0.71882-0.5583-0.3852-1.1266-0.50535-1.79-0.37827-1.2578 0.24048-3.5883 1.8162-4.1403 2.7993-0.3849 0.68543-0.39 0.86304-0.046 1.6572 0.4936 1.1398 1.7372 1.383 3.7656 0.73639 0.8342-0.26588 1.4335-0.34967 1.4335-0.2005 0 0.14099-0.9997 2.6055-2.2215 5.4767-1.7254 4.0544-3.0632 7.5171-3.9424 10.186-4.1957 1.2235-8.4375 2.8017-12.528 4.7041-11.204 5.2102-18.466 11.731-21.094 18.943-0.8036 2.2048-1.1323 6.9365-0.6135 8.8284 0.6058 2.209 4.0239 4.2253 7.66 4.5186 1.7851 0.14396 2.9348-0.16788 2.9348-0.79635 0-0.38758-0.2172-0.4578-3.2598-1.0557-3.3397-0.65629-4.5079-1.8468-4.4835-4.5677 0.029-3.1821 1.5663-6.5452 4.7191-10.321 5.8164-6.9652 15.312-13.284 25.825-17.403-0.089 0.35782-0.1633 0.69096-0.2196 0.99012-5.3015 19.707-5.7406 23.708-14.468 45.087-0.2272 0.61219-0.5884 1.1461-0.8025 1.1865-0.5712 0.10763-5.1043-3.7291-5.4694-4.6292-0.4319-1.0646-0.3787-1.9183 0.2418-3.8773 0.2936-0.92692 0.468-1.8517 0.3876-2.0552-0.2023-0.51194-1.1464-0.28056-2.5828 0.63251-1.6245 1.0327-1.9388 1.8338-1.4325 3.6525 0.3228 1.1593 0.3327 1.7768 0.062 3.7925-0.4846 3.6093-0.4589 9.3348 0.05 11.026 0.5108 1.6982 1.3707 3.002 2.4872 3.7719v-5e-4c0.4613 0.31805 1.1331 0.52305 1.4929 0.45527 1.6511-0.31113 3.5423-2.6061 5.3946-6.5459 0.6421-1.3658 1.3067-2.5653 1.4769-2.6655 0.1701-0.1002 0.9481 0.11859 1.7291 0.48628 1.8957 0.89252 4.4404 1.4363 7.1396 1.5255 3.0567 0.10133 9.9856-1.2017 13.461-2.5311 7.6572-2.9294 14.295-7.6631 19.544-13.938 5.2422-6.2667 8.1497-11.789 9.5839-18.202 0.7167-3.2053 0.9556-8.192 0.5136-10.721-1.233-7.0554-5.7345-11.508-12.907-12.768-1.8175-0.31909-3.8077-0.47969-5.9284-0.4899-4.7286-0.0227-10.106 0.70755-15.658 2.0893 1.0928-3.1216 3.312-9.1089 5.6725-13.958 1.1199-2.3006 0.4102-1.9012 7.1582-4.0287 10.757-3.3915 16.859-6.0911 16.155-7.1468-0.3774-0.56602-9.0828 1.6864-15.229 3.9403-0.8003 0.2935-2.3389 0.78589-3.4189 1.094l-1.9637 0.56018 0.6181-1.1922c1.7342-3.3439 5.6908-10.139 7.2197-12.4 3.247-4.801 6.2638-7.6428 8.5767-8.0786 0.9231-0.17394 1.139-0.30893 1.139-0.71467 0-1.0825-2.3686-2.2164-4.3553-2.2422zm-6.4539 43.535c2.3524-7.6e-4 4.4798 0.29213 6.4043 0.87747 1.8292 0.55639 2.6458 1.0277 4.3765 2.5254 2.2633 1.9587 3.4258 3.6714 4.3925 6.4725 0.8203 2.377 0.8272 7.0762 0.016 10.328-2.7138 10.873-10.717 21.604-21.656 29.037-6.4072 4.3541-14.323 6.7349-19.54 5.8761-2.2555-0.37129-5.6886-1.6818-5.6886-2.1714 0 0 9.6357-30.056 15.733-49.775 1.8904-0.64593 3.8036-1.2206 5.7257-1.7105 3.8164-0.97261 7.2127-1.4589 10.237-1.4599zm-41.125 49.492 2.5931 2.1296c2.261 1.8569 2.5711 2.222 2.4267 2.8551-0.2939 1.2891-2.16 5.5719-2.7383 6.2844-0.3088 0.38042-0.6873 0.71533-0.8402 0.74414-0.8472 0.15959-1.6724-5.0795-1.5204-9.6521z"/>
  <path d="m18.921 527.49c-2.4257 7.6487-3.1921 11.362-3.0513 11.336 0.05-9e-3 1.2631-1.6356 2.6964-3.6138 5.3793-7.4243 11.358-14.568 14.664-17.521 0.6548-0.58486 1.8086-1.4085 2.5639-1.8304 1.298-0.72491 1.4246-0.75113 2.3082-0.478 1.871 0.57841 1.6379 2.3788-1.18 9.1156-1.1609 2.7755-2.0564 5.0929-1.9898 5.1498 0.067 0.0568 0.9582-0.83654 1.9816-1.9854 2.2561-2.5328 5.7627-5.8408 7.5609-7.1327 2.0339-1.4613 4.8637-2.9184 6.1317-3.1574 1.0628-0.20026 1.1443-0.16323 1.1443 0.51941 0 0.40427-0.354 1.3774-0.7867 2.1625-1.1708 2.1243-3.3451 7.472-4.2406 10.43-0.6087 2.0103-0.7981 3.1585-0.8317 5.041-0.043 2.4114-0.034 2.4444 0.7953 3.0616 0.9865 0.73383 1.611 0.66037 3.1726-0.37322 2.6074-1.7258 8.8214-8.6144 11.7-12.97 1.6233-2.4563 2.3831-3.0769 2.5701-2.0992 0.2241 1.1718-7.3183 11.274-10.864 14.552-5.0232 4.6434-10.045 5.4766-11.451 1.9-0.372-0.94633-0.4294-1.7026-0.3049-4.0193 0.1762-3.2776 0.7059-5.4562 2.4131-9.9242 0.6673-1.7465 1.2132-3.2866 1.2132-3.4226 0-0.37797-2.3166 1.3687-4.1769 3.1492-1.6879 1.6156-7.1354 8.1769-9.3284 11.236-1.0837 1.5115-1.3074 1.6957-2.2823 1.8794-2.479 0.46711-2.2733-0.71205 1.6812-9.6357 2.8395-6.4075 3.0683-7.0358 2.683-7.3654-0.3854-0.32949-0.5302-0.28951-1.6968 0.46878-3.2591 2.1183-6.2159 5.8049-12.407 15.469-3.5267 5.5052-4.3351 6.7294-5.2829 7.9997-0.94 1.26-3.6433 3.206-4.7414 3.4133-0.9508 0.17942-1.0797 0.76267 1.9358-8.762 1.3249-4.185 2.375-7.709 2.3335-7.8311 2.1442-7.2736 4.3308-15.642 7.3739-21.994 0.4207-0.87412 0.7649-1.6404 0.7649-1.7028s-1.7561 0.13258-3.9026 0.43336c-20.027 1.3343-34.47 0.71595-49.676 0.92259-9.0077 0.12242-14.435 1.6463-17.277 2.5197-4.7063 1.4463-9.4979 3.4891-12.508 5.3325-6.857 4.1992-10.067 7.7569-11.602 12.86-0.5643 1.8756-0.5724 2.0255-0.1734 3.2038 0.5243 1.5483 1.3225 2.3016 3.5957 3.3936 2.001 0.96123 2.3514 1.2992 1.8171 1.753-0.443 0.37624-0.4053 0.37286-1.5844 0.14222-2.7232-0.53272-5.61-3.0098-6.268-5.3783-0.2993-1.0776-0.034-3.6789 0.654-6.4094 1.6386-6.5044 7.7012-11.8 18.211-15.908 2.4259-0.94815 3.9235-1.3317 8.9958-2.304 6.2938-1.2064 7.1621-1.2863 17.198-1.582 14.938 0.75823 37.63 0.8765 49.862-0.4262 3.77-0.29713 3.8345-0.31143 4.4979-0.99682 2.0216-2.0885 2.7713-2.7087 3.6714-3.037 1.2676-0.4623 2.3492-0.23751 2.7324 0.56789 0.3771 0.79256 0.2384 1.0022-2.5505 3.8555-2.2864 2.3392-3.7634 6.0494-4.5602 7.8042-1.8613 4.267-3.388 9.5917-4.2064 12.189z"/>
  <path d="m11.956 564.89c-6.4182 1.5361-11.353 2.0644-14.67-0.72856-1.7842-1.502-2.1076-4.2289-2.3018-6.1512-0.456-3.7219 2.1713-10.923 6.5495-21.49 2.0817-4.0503 3.1553-7.496 3.1553-8.1957 0-1.3729-1.2073-1.957-3.9904-1.9305-3.3906 0.0322-2.2403 1.5374-7.1322 9.6602-4.7711 7.9223-7.4125 11.696-9.7048 14.314-2.9896 1.8747-3.4492 0.36083-4.465-0.43998l-0.6776-0.71261-2.1933 2.6103c-3.0385 3.6162-4.9375 5.082-8.19 5.8338-2.7229 0.62941-3.7515 0.50607-5.3243-0.63842-1.7403-1.2664-2.1109-2.3041-2.1108-5.9096 1e-4 -2.8432 0.085-3.4372 0.8097-5.6866 2.1251-6.5928 7.1507-13.514 11.977-16.495 2.725-1.6829 5.9011-1.8969 7.1449-0.48131 0.6034 0.68675 0.7947 2.7815 0.3317 3.6319-0.383 0.70312-1.081 0.33674-1.081-0.56734 0-1.1441-0.6233-1.5678-1.9372-1.3172-4.0254 0.76788-11.563 11.39-13.26 18.686-0.5846 2.5127-0.5315 4.634 0.1507 6.0197 0.6607 1.342 1.5575 1.6286 3.1918 1.3206 2.2617-0.42616 6.0899-3.8262 8.1913-7.2751 0.7809-1.2818 0.8857-1.6436 0.7903-2.7289-0.097-1.1061-0.026-1.3355 0.6108-1.9786 0.3964-0.40006 0.927-0.76623 1.179-0.81372 1.1367-0.21418 2.3488-5.9544 1.651-7.9117-0.4801-1.3465 0.2308-2.5115 1.7069-2.7973 1.0778-0.2083 1.6091 0.35358 1.9819 2.0972 0.5148 2.4073-0.5256 5.7237-3.0656 10.195-0.9394 1.6539-1.3493 2.1961-1.0422 2.9119 0 0 0.3067 1.851 1.5636 1.6142 2.8786-0.54238 3.9829-3.5193 9.2391-12.752 1.0652-1.8709 2.3759-6.4303 2.9128-7.5448l0.9761-2.0265-0.7148-0.23127c-1.9251-0.62285-1.4605-2.3872 1.6794-6.3773 1.8136-2.3047 2.6964-3.1888 4.3768-4.383 2.4803-1.7627 2.8375-1.8798 2.8375-0.9301 0 0.8857-0.4272 1.8459-2.5791 5.7964-0.948 1.7404-1.6593 3.2193-1.5806 3.2866 0.079 0.0673 2.4458-0.25273 5.2602-0.71111 5.9844-0.97465 6.7303-1.0251 6.9496-0.47019 0.2609 0.66044-0.7375 2.6447-3.0438 6.049-2.8372 4.1879-4.986 10.154-6.4555 13.586-4.5362 9.3693-3.6323 14.611-3.2309 17.258 0.3815 2.3372 2.4084 3.119 2.4084 3.119 5.4031 0.50977 7.1081 0.0545 14.291-1.6854 5.1364-1.0444 16.701-4.1647 22.401-5.4322 0.056 0.0482 9.2633-2.2285 11.87-2.9119 4.5785-1.2004 5.6149-1.3478 5.6149-0.79814 0 0.62701-7.7383 2.9744-17.7 5.7984-5.5761 1.4584-17.344 4.524-22.456 6.043z"/>
  <path d="m-8.1378 603.39c-0.6407-0.14918-1.8645-1.1993-2.3362-2.0047-0.6362-1.0862-0.54-5.5969 0.1803-8.4541 0.3014-1.1956 0.6212-2.4981 0.7106-2.8946 0.1195-0.53033-0.2736-0.12799-1.4878 1.5226-2.4636 3.3493-6.6689 8.3774-8.5246 10.192-4.4716 4.3738-8.0982 5.3082-11.282 2.9069-3.8096-2.8734-2.5295-8.2333 3.7233-15.59 3.642-4.285 8.8801-8.9229 12.924-11.443 2.0482-1.2765 5.1382-2.5624 7.0745-2.9439 2.5231-0.49722 5.6324 0.97431 5.6324 2.6656 0 0.85634-0.1937 0.89121-1.0576 0.19092-1.335-1.0829-4.9654-0.533-8.1379 1.2326-4.3016 2.3941-10.008 7.5508-13.042 11.786-1.8973 2.6482-4.2455 6.734-5.0545 8.7945-0.4132 1.0527-0.5199 1.7818-0.4358 2.9794 0.1849 2.6311 1.2383 3.0648 3.6183 1.4895 2.7438-1.816 8.1265-7.7235 14.922-16.377 2.7321-3.4789 5.2678-6.5497 5.6351-6.824 0.5466-0.40822 0.8935-0.47887 1.9119-0.38935 0.6842 0.0601 1.4678 0.29781 1.7413 0.52812 0.486 0.40935 0.47 0.46932-0.7114 2.6737-2.5912 4.8347-4.0208 9.2377-4.3339 13.348-0.179 2.3488 0.248 3.3991 1.5066 3.7059 0.6449 0.1572-0.8188 0.41035 0 0 1.9194-0.96168 6.9932-8.4832 9.8795-12.559 2.3609-3.3339 5.8027-8.8916 6.9824-11.275 4.1949-8.4979 4.3405-9.4796 6.9763-15.067 1.4555-3.0832 4.98-11.079 5.3311-11.516 0.792-0.98555 2.8498-1.4783 3.9331-0.94179 1.3043 0.64592 0.707 3.3177-1.2027 5.3806-3.3006 6.1724-7.239 15.266-9.7328 19.891-1.5423 3.1037-4.3344 9.7602-5.4979 13.107-1.1372 3.2714-1.3636 6.296-0.5597 7.4753 0.6585 0.96599 1.9124 1.0543 3.2274 0.22723 2.4837-1.562 9.7907-9.6848 12.027-13.37 3.1118-5.1274 9.541-11.644 15.598-15.81 2.5754-1.7714 5.9216-3.2905 8.1887-3.7177 2.449-0.46144 5.2918 0.78795 5.6057 2.4636 0.1757 0.93778-0.1437 1.2065-0.712 0.59909-1.0988-1.1744-4.501-0.90835-7.5216 0.58817-5.3363 2.6438-11.992 8.8222-15.452 14.344-3.1938 5.097-4.5184 8.5459-4.0067 10.432 0.5715 2.107 1.6625 2.177 4.2116 0.2701 2.6905-2.0128 6.4684-6.185 13.399-14.798 7.2987-9.07 7.0407-8.8431 9.3178-8.1937 0.7305 0.20834 1.1244 0.49865 1.1244 0.82861 0 0.27935-0.5884 1.591-1.3075 2.9149-2.4952 4.5932-4.1441 10.376-3.9331 13.794 0.097 1.5671 0.2075 1.8638 0.8715 2.3345 0.6177 0.43801 0.9548 0.47556 1.7943 0.19988 2.2967-0.7542 8.6587-7.455 13.069-13.765 1.7612-2.5198 2.4723-3.0913 2.4678-1.9834 0 0.92561-2.1973 4.2049-5.8065 8.6809-5.0523 6.2656-8.0157 8.7433-11.531 9.6412-2.457 0.62748-3.5686 0.32147-4.563-1.2561-0.6643-1.054-0.7167-1.3591-0.6944-4.0433 0.022-2.6565 0.4674-5.2842 1.3289-7.8423 0.1092-0.32425-1.9365 2.0714-4.546 5.3238-6.457 8.0476-9.171 10.349-12.611 10.692-1.8353 0.18324-3.2458-0.28479-4.6389-1.5393-1.2078-1.0878-2.0841-3.2284-1.7478-4.2699 0.099-0.30748-0.8798 0.70597-2.1757 2.2521-4.5916 5.4781-7.072 7.4183-10.558 8.2591-1.8867 0.45494-2.2146 0.45861-3.0183 0.0331-1.5282-0.80896-1.982-1.6022-2.0853-3.645-0.096-1.9068 0.4794-4.544 1.7741-8.1244 0.3241-0.89616 0.485-1.4855 0.3576-1.3097-0.1274 0.17585-0.9004 1.3154-1.7178 2.5322-2.8361 3.6136-5.1314 7.4143-7.4229 10.099-1.125 1.3178-2.882 4.6644-5.1973 5.1981-1.1026 0.25407-2.1832 0.42076-2.4015 0.36965z"/>
  <path d="m-38.926 514.61c-0.2838-4e-3 -0.5599 0.015-0.8201 0.0599-2.3797 0.41084-5.8995 3.6376-8.9747 8.2269-1.6362 2.442-2.3019 4.1877-2.0954 5.4963 0.1573 0.99663-0.2998 2.1538-4.0551 10.266-0.5566 1.2024-1.0008 1.3671-1.941 0.71882-0.5583-0.3852-1.1266-0.50535-1.79-0.37827-1.2578 0.24048-3.5883 1.8162-4.1403 2.7993-0.3849 0.68543-0.39 0.86304-0.046 1.6572 0.4936 1.1398 1.7372 1.383 3.7656 0.73639 0.8342-0.26588 1.4335-0.34967 1.4335-0.2005 0 0.14099-0.9997 2.6055-2.2215 5.4767-1.7254 4.0544-3.0632 7.5171-3.9424 10.186-4.1957 1.2235-8.4375 2.8017-12.528 4.7041-11.204 5.2102-18.466 11.731-21.094 18.943-0.8036 2.2048-1.1323 6.9365-0.6135 8.8284 0.6058 2.209 4.0239 4.2253 7.66 4.5186 1.7851 0.14396 2.9348-0.16788 2.9348-0.79635 0-0.38758-0.2172-0.4578-3.2598-1.0557-3.3397-0.65629-4.5079-1.8468-4.4835-4.5677 0.029-3.1821 1.5663-6.5452 4.7191-10.321 5.8164-6.9652 15.312-13.284 25.825-17.403-0.089 0.35782-0.1633 0.69096-0.2196 0.99012-5.3015 19.707-5.7406 23.708-14.468 45.087-0.2272 0.61219-0.5884 1.1461-0.8025 1.1865-0.5712 0.10763-5.1043-3.7291-5.4694-4.6292-0.4319-1.0646-0.3787-1.9183 0.2418-3.8773 0.2936-0.92692 0.468-1.8517 0.3876-2.0552-0.2023-0.51194-1.1464-0.28056-2.5828 0.63251-1.6245 1.0327-1.9388 1.8338-1.4325 3.6525 0.3228 1.1593 0.3327 1.7768 0.062 3.7925-0.4846 3.6093-0.4589 9.3348 0.05 11.026 0.5108 1.6982 1.3707 3.002 2.4872 3.7719v-5e-4c0.4613 0.31805 1.1331 0.52305 1.4929 0.45527 1.6511-0.31113 3.5423-2.6061 5.3946-6.5459 0.6421-1.3658 1.3067-2.5653 1.4769-2.6655 0.1701-0.1002 0.9481 0.11859 1.7291 0.48628 1.8957 0.89252 4.4404 1.4363 7.1396 1.5255 3.0567 0.10133 9.9856-1.2017 13.461-2.5311 7.6572-2.9294 14.295-7.6631 19.544-13.938 5.2422-6.2667 8.1497-11.789 9.5839-18.202 0.7167-3.2053 0.9556-8.192 0.5136-10.721-1.233-7.0554-5.7345-11.508-12.907-12.768-1.8175-0.31909-3.8077-0.47969-5.9284-0.4899-4.7286-0.0227-10.106 0.70755-15.658 2.0893 1.0928-3.1216 3.312-9.1089 5.6725-13.958 1.1199-2.3006 0.4102-1.9012 7.1582-4.0287 10.757-3.3915 16.859-6.0911 16.155-7.1468-0.3774-0.56602-9.0828 1.6864-15.229 3.9403-0.8003 0.2935-2.3389 0.78589-3.4189 1.094l-1.9637 0.56018 0.6181-1.1922c1.7342-3.3439 5.6908-10.139 7.2197-12.4 3.247-4.801 6.2638-7.6428 8.5767-8.0786 0.9231-0.17394 1.139-0.30893 1.139-0.71467 0-1.0825-2.3686-2.2164-4.3553-2.2422zm-6.4539 43.535c2.3524-7.6e-4 4.4798 0.29213 6.4043 0.87747 1.8292 0.55639 2.6458 1.0277 4.3765 2.5254 2.2633 1.9587 3.4258 3.6714 4.3925 6.4725 0.8203 2.377 0.8272 7.0762 0.016 10.328-2.7138 10.873-10.717 21.604-21.656 29.037-6.4072 4.3541-14.323 6.7349-19.54 5.8761-2.2555-0.37129-5.6886-1.6818-5.6886-2.1714 0 0 9.6357-30.056 15.733-49.775 1.8904-0.64593 3.8036-1.2206 5.7257-1.7105 3.8164-0.97261 7.2127-1.4589 10.237-1.4599zm-41.125 49.492 2.5931 2.1296c2.261 1.8569 2.5711 2.222 2.4267 2.8551-0.2939 1.2891-2.16 5.5719-2.7383 6.2844-0.3088 0.38042-0.6873 0.71533-0.8402 0.74414-0.8472 0.15959-1.6724-5.0795-1.5204-9.6521z"/>
  <path d="m18.921 527.49c-2.4257 7.6487-3.1921 11.362-3.0513 11.336 0.05-9e-3 1.2631-1.6356 2.6964-3.6138 5.3793-7.4243 11.358-14.568 14.664-17.521 0.6548-0.58486 1.8086-1.4085 2.5639-1.8304 1.298-0.72491 1.4246-0.75113 2.3082-0.478 1.871 0.57841 1.6379 2.3788-1.18 9.1156-1.1609 2.7755-2.0564 5.0929-1.9898 5.1498 0.067 0.0568 0.9582-0.83654 1.9816-1.9854 2.2561-2.5328 5.7627-5.8408 7.5609-7.1327 2.0339-1.4613 4.8637-2.9184 6.1317-3.1574 1.0628-0.20026 1.1443-0.16323 1.1443 0.51941 0 0.40427-0.354 1.3774-0.7867 2.1625-1.1708 2.1243-3.3451 7.472-4.2406 10.43-0.6087 2.0103-0.7981 3.1585-0.8317 5.041-0.043 2.4114-0.034 2.4444 0.7953 3.0616 0.9865 0.73383 1.611 0.66037 3.1726-0.37322 2.6074-1.7258 8.8214-8.6144 11.7-12.97 1.6233-2.4563 2.3831-3.0769 2.5701-2.0992 0.2241 1.1718-7.3183 11.274-10.864 14.552-5.0232 4.6434-10.045 5.4766-11.451 1.9-0.372-0.94633-0.4294-1.7026-0.3049-4.0193 0.1762-3.2776 0.7059-5.4562 2.4131-9.9242 0.6673-1.7465 1.2132-3.2866 1.2132-3.4226 0-0.37797-2.3166 1.3687-4.1769 3.1492-1.6879 1.6156-7.1354 8.1769-9.3284 11.236-1.0837 1.5115-1.3074 1.6957-2.2823 1.8794-2.479 0.46711-2.2733-0.71205 1.6812-9.6357 2.8395-6.4075 3.0683-7.0358 2.683-7.3654-0.3854-0.32949-0.5302-0.28951-1.6968 0.46878-3.2591 2.1183-6.2159 5.8049-12.407 15.469-3.5267 5.5052-4.3351 6.7294-5.2829 7.9997-0.94 1.26-3.6433 3.206-4.7414 3.4133-0.9508 0.17942-1.0797 0.76267 1.9358-8.762 1.3249-4.185 2.375-7.709 2.3335-7.8311 2.1442-7.2736 4.3308-15.642 7.3739-21.994 0.4207-0.87412 0.7649-1.6404 0.7649-1.7028s-1.7561 0.13258-3.9026 0.43336c-20.027 1.3343-34.47 0.71595-49.676 0.92259-9.0077 0.12242-14.435 1.6463-17.277 2.5197-4.7063 1.4463-9.4979 3.4891-12.508 5.3325-6.857 4.1992-10.067 7.7569-11.602 12.86-0.5643 1.8756-0.5724 2.0255-0.1734 3.2038 0.5243 1.5483 1.3225 2.3016 3.5957 3.3936 2.001 0.96123 2.3514 1.2992 1.8171 1.753-0.443 0.37624-0.4053 0.37286-1.5844 0.14222-2.7232-0.53272-5.61-3.0098-6.268-5.3783-0.2993-1.0776-0.034-3.6789 0.654-6.4094 1.6386-6.5044 7.7012-11.8 18.211-15.908 2.4259-0.94815 3.9235-1.3317 8.9958-2.304 6.2938-1.2064 7.1621-1.2863 17.198-1.582 14.938 0.75823 37.63 0.8765 49.862-0.4262 3.77-0.29713 3.8345-0.31143 4.4979-0.99682 2.0216-2.0885 2.7713-2.7087 3.6714-3.037 1.2676-0.4623 2.3492-0.23751 2.7324 0.56789 0.3771 0.79256 0.2384 1.0022-2.5505 3.8555-2.2864 2.3392-3.7634 6.0494-4.5602 7.8042-1.8613 4.267-3.388 9.5917-4.2064 12.189z"/>
  <path d="m11.956 564.89c-6.4182 1.5361-11.353 2.0644-14.67-0.72856-1.7842-1.502-2.1076-4.2289-2.3018-6.1512-0.456-3.7219 2.1713-10.923 6.5495-21.49 2.0817-4.0503 3.1553-7.496 3.1553-8.1957 0-1.3729-1.2073-1.957-3.9904-1.9305-3.3906 0.0322-2.2403 1.5374-7.1322 9.6602-4.7711 7.9223-7.4125 11.696-9.7048 14.314-2.9896 1.8747-3.4492 0.36083-4.465-0.43998l-0.6776-0.71261-2.1933 2.6103c-3.0385 3.6162-4.9375 5.082-8.19 5.8338-2.7229 0.62941-3.7515 0.50607-5.3243-0.63842-1.7403-1.2664-2.1109-2.3041-2.1108-5.9096 1e-4 -2.8432 0.085-3.4372 0.8097-5.6866 2.1251-6.5928 7.1507-13.514 11.977-16.495 2.725-1.6829 5.9011-1.8969 7.1449-0.48131 0.6034 0.68675 0.7947 2.7815 0.3317 3.6319-0.383 0.70312-1.081 0.33674-1.081-0.56734 0-1.1441-0.6233-1.5678-1.9372-1.3172-4.0254 0.76788-11.563 11.39-13.26 18.686-0.5846 2.5127-0.5315 4.634 0.1507 6.0197 0.6607 1.342 1.5575 1.6286 3.1918 1.3206 2.2617-0.42616 6.0899-3.8262 8.1913-7.2751 0.7809-1.2818 0.8857-1.6436 0.7903-2.7289-0.097-1.1061-0.026-1.3355 0.6108-1.9786 0.3964-0.40006 0.927-0.76623 1.179-0.81372 1.1367-0.21418 2.3488-5.9544 1.651-7.9117-0.4801-1.3465 0.2308-2.5115 1.7069-2.7973 1.0778-0.2083 1.6091 0.35358 1.9819 2.0972 0.5148 2.4073-0.5256 5.7237-3.0656 10.195-0.9394 1.6539-1.3493 2.1961-1.0422 2.9119 0 0 0.3067 1.851 1.5636 1.6142 2.8786-0.54238 3.9829-3.5193 9.2391-12.752 1.0652-1.8709 2.3759-6.4303 2.9128-7.5448l0.9761-2.0265-0.7148-0.23127c-1.9251-0.62285-1.4605-2.3872 1.6794-6.3773 1.8136-2.3047 2.6964-3.1888 4.3768-4.383 2.4803-1.7627 2.8375-1.8798 2.8375-0.9301 0 0.8857-0.4272 1.8459-2.5791 5.7964-0.948 1.7404-1.6593 3.2193-1.5806 3.2866 0.079 0.0673 2.4458-0.25273 5.2602-0.71111 5.9844-0.97465 6.7303-1.0251 6.9496-0.47019 0.2609 0.66044-0.7375 2.6447-3.0438 6.049-2.8372 4.1879-4.986 10.154-6.4555 13.586-4.5362 9.3693-3.6323 14.611-3.2309 17.258 0.3815 2.3372 2.4084 3.119 2.4084 3.119 5.4031 0.50977 7.1081 0.0545 14.291-1.6854 5.1364-1.0444 16.701-4.1647 22.401-5.4322 0.056 0.0482 9.2633-2.2285 11.87-2.9119 4.5785-1.2004 5.6149-1.3478 5.6149-0.79814 0 0.62701-7.7383 2.9744-17.7 5.7984-5.5761 1.4584-17.344 4.524-22.456 6.043z"/>
 </g>
</svg>
